shirepirate


Law and Order SVU Season 1 S01 DVDRip XviD AC3

English language audio, English subtitles included


Episode list: 
http://en.wikipedia.org/wiki/Law_%26_Order:_Special_Victims_Unit_(season_1)#Episodes

Wikipedia: 
http://en.wikipedia.org/wiki/Law_%26_Order:_Special_Victims_Unit_(season_1)

IMDB: 
http://www.imdb.com/title/tt0203259/

Amazon: 
http://www.amazon.com/dp/B0000AVHCA


Media information of episode 1:

General

Format                           : AVI
Format/Info                      : Audio Video Interleave
File size                        : 349 MiB
Duration                         : 43mn 23s
Overall bit rate                 : 1 123 Kbps
Writing application              : Nandub v1.0rc2
Writing library                  : Nandub build 1853/release

Video

ID                               : 0
Format                           : MPEG-4 Visual
Format profile                   : Simple@L3
Format settings, BVOP            : No
Format settings, QPel            : No
Format settings, GMC             : No warppoints
Format settings, Matrix          : Default (H.263)
Codec ID                         : XVID
Codec ID/Hint                    : XviD
Duration                         : 43mn 23s
Bit rate                         : 924 Kbps
Width                            : 576 pixels
Height                           : 432 pixels
Display aspect ratio             : 4:3
Frame rate                       : 23.976 fps
Color space                      : YUV
Chroma subsampling               : 4:2:0
Bit depth                        : 8 bits
Scan type                        : Progressive
Compression mode                 : Lossy
Bits/(Pixel*Frame)               : 0.155
Stream size                      : 287 MiB (82%)
Writing library                  : XviD 0.0.09 (UTC 2003-03-25)

Audio

ID                               : 1
Format                           : AC-3
Format/Info                      : Audio Coding 3
Format profile                   : Dolby Digital
Mode extension                   : CM (complete main)
Codec ID                         : 2000
Duration                         : 43mn 23s
Bit rate mode                    : Constant
Bit rate                         : 192 Kbps
Channel(s)                       : 2 channels
Channel positions                : Front: L R
Sampling rate                    : 48.0 KHz
Bit depth                        : 16 bits
Compression mode                 : Lossy
Stream size                      : 59.6 MiB (17%)
Alignment                        : Split accross interleaves
Interleave, duration             : 96 ms (2.30 video frames)
Interleave, preload duration     : 500 ms